<?xml version="1.0" encoding="UTF-8"?>
<svg id="Calque_1" data-name="Calque 1" xmlns="http://www.w3.org/2000/svg" xmlns:xlink="http://www.w3.org/1999/xlink" version="1.1" viewBox="0 0 68 42">
  <defs>
    <style>
      .cls-1 {
        fill: url(#Dégradé_sans_nom);
      }

      .cls-1, .cls-2, .cls-3, .cls-4, .cls-5 {
        stroke-width: 0px;
      }

      .cls-2 {
        fill: url(#Dégradé_sans_nom_4);
      }

      .cls-3 {
        fill: url(#Dégradé_sans_nom_5);
      }

      .cls-4 {
        fill: url(#Dégradé_sans_nom_2);
      }

      .cls-5 {
        fill: url(#Dégradé_sans_nom_3);
      }
    </style>
    <linearGradient id="Dégradé_sans_nom" data-name="Dégradé sans nom" x1="10.7" y1="23" x2="25" y2="23" gradientTransform="translate(0 44) scale(1 -1)" gradientUnits="userSpaceOnUse">
      <stop offset="0" stop-color="#1f286f"/>
      <stop offset=".5" stop-color="#004e94"/>
      <stop offset=".8" stop-color="#0066b1"/>
      <stop offset="1" stop-color="#006fbc"/>
    </linearGradient>
    <linearGradient id="Dégradé_sans_nom_2" data-name="Dégradé sans nom 2" x1="26.4" y1="23" x2="40.3" y2="23" gradientTransform="translate(0 44) scale(1 -1)" gradientUnits="userSpaceOnUse">
      <stop offset="0" stop-color="#6c2c2f"/>
      <stop offset=".2" stop-color="#882730"/>
      <stop offset=".6" stop-color="#be1833"/>
      <stop offset=".9" stop-color="#dc0436"/>
      <stop offset="1" stop-color="#e60039"/>
    </linearGradient>
    <linearGradient id="Dégradé_sans_nom_3" data-name="Dégradé sans nom 3" x1="42.1" y1="23" x2="56.2" y2="23" gradientTransform="translate(0 44) scale(1 -1)" gradientUnits="userSpaceOnUse">
      <stop offset="0" stop-color="#007940"/>
      <stop offset=".2" stop-color="#00873f"/>
      <stop offset=".7" stop-color="#40a737"/>
      <stop offset="1" stop-color="#5cb531"/>
    </linearGradient>
    <linearGradient id="Dégradé_sans_nom_4" data-name="Dégradé sans nom 4" x1="42.1" y1="20.8" x2="56.2" y2="20.8" gradientTransform="translate(0 44) scale(1 -1)" gradientUnits="userSpaceOnUse">
      <stop offset="0" stop-color="#007940"/>
      <stop offset=".2" stop-color="#00873f"/>
      <stop offset=".7" stop-color="#40a737"/>
      <stop offset="1" stop-color="#5cb531"/>
    </linearGradient>
    <linearGradient id="Dégradé_sans_nom_5" data-name="Dégradé sans nom 5" x1="42.1" y1="25.3" x2="56.2" y2="25.3" gradientTransform="translate(0 44) scale(1 -1)" gradientUnits="userSpaceOnUse">
      <stop offset="0" stop-color="#007940"/>
      <stop offset=".2" stop-color="#00873f"/>
      <stop offset=".7" stop-color="#40a737"/>
      <stop offset="1" stop-color="#5cb531"/>
    </linearGradient>
  </defs>
  <path class="cls-1" d="M16.4,4c-3.1,0-5.7,2.5-5.7,5.7v14c1.6.8,3.3,1.3,4.9,1.3s3-1.2,3-2.8v-6.6h4.9v6.6c0,2.6-1.6,4.7-7,4.7s-5.8-.7-5.8-.7v11.9h8.3c3.1,0,5.7-2.5,5.7-5.7V4h-8.3Z"/>
  <path class="cls-4" d="M32.2,4c-3.1,0-5.7,2.5-5.7,5.7v7.4c1.4-1.2,3.9-2,8-1.8,2.2,0,4.5.7,4.5.7v2.4c-1.2-.6-2.5-1.1-4.3-1.2-3.1-.2-4.9,1.3-4.9,3.9s1.8,4.2,4.9,3.9c1.8-.1,3.2-.7,4.3-1.2v2.4s-2.3.6-4.5.7c-4,.2-6.5-.6-8-1.8v13s8.3,0,8.3,0c3.1,0,5.7-2.5,5.7-5.7V4s-8.3,0-8.3,0Z"/>
  <path class="cls-5" d="M48,4c-3.1,0-5.7,2.5-5.7,5.7v5.9h8c.2,0,.4,0,.6,0,1.8,0,3.2,1,3.2,2.7s-.9,2.4-2.6,2.6h0c1.8.2,3.2,1.2,3.2,2.8s-1.6,2.8-3.6,2.8h-8.8v11.5h8.3c3.1,0,5.7-2.5,5.7-5.7V4h-8.3Z"/>
  <path class="cls-2" d="M45.1,24.7h3.3s.1,0,.2,0c0,0,.2,0,.2,0,.6-.1,1.2-.7,1.2-1.5s-.5-1.3-1.2-1.5c0,0-.3,0-.4,0h-3.3v3Z"/>
  <path class="cls-3" d="M48.4,17.3c.6,0,1.2.6,1.2,1.3s-.5,1.2-1.2,1.3c0,0-.2,0-.3,0h-3v-2.7h3c0,0,.1,0,.2,0,0,0,0,0,.1,0Z"/>
</svg>