<?xml version="1.0" encoding="UTF-8"?>
<svg id="Calque_1" data-name="Calque 1" xmlns="http://www.w3.org/2000/svg" xmlns:xlink="http://www.w3.org/1999/xlink" version="1.1" viewBox="0 0 68 42">
  <defs>
    <style>
      .cls-1 {
        clip-path: url(#clippath);
      }

      .cls-2 {
        fill: none;
      }

      .cls-2, .cls-3, .cls-4, .cls-5 {
        stroke-width: 0px;
      }

      .cls-3 {
        fill-rule: evenodd;
      }

      .cls-3, .cls-5 {
        fill: #3a80b9;
      }

      .cls-4 {
        fill: #fac448;
      }
    </style>
    <clipPath id="clippath">
      <rect class="cls-2" width="68" height="42"/>
    </clipPath>
  </defs>
  <g class="cls-1">
    <g>
      <path class="cls-3" d="M35.9,15.6c-1.7,0-3.2,1.2-3.5,2.9l-2.3,11.9c0,.3.1.6.4.7.3,0,.6-.1.7-.4l1-5.1c.5.6,1.2.9,2.1.9h2.7c1.7,0,3.2-1.2,3.5-2.9l.9-4.6c.3-1.7-1-3.3-2.8-3.3h-2.7ZM33.5,18.7c.2-1.1,1.2-2,2.4-2h2.7c1.1,0,1.9,1,1.7,2l-.9,4.6c-.2,1.1-1.2,2-2.4,2h-2.7c-1.1,0-1.9-1-1.7-2l.9-4.6Z"/>
      <path class="cls-5" d="M42.2,18.4c.3-1.6,1.7-2.8,3.4-2.8h4.9c.7,0,.3,1.1-.4,1.1h-4.6c-1.1,0-2,.8-2.3,1.9-.2,1,.6,1.9,1.6,1.9h3c1.7,0,2.6,1.6,2.3,3.1-.3,1.7-1.8,2.9-3.5,2.9h-5.4c-.7,0-.3-1.1.4-1.1h5c1.2,0,2.2-.8,2.4-2,.2-.9-.3-1.8-1.2-1.8h-3c-1.7,0-3-1.5-2.7-3.2Z"/>
      <path class="cls-3" d="M55.4,15.6c-1.7,0-3.2,1.2-3.5,2.9l-.9,4.6c-.3,1.7,1,3.3,2.8,3.3h5c.7,0,1.1-1.1.4-1.1h-5.3c-1.1,0-1.9-1-1.7-2l.3-1.7h7.2c.4,0,.8-.3.9-.8l.4-2.1c.3-1.6-.9-3.1-2.6-3.1h-3ZM59.5,20.5h-6.8l.3-1.8c.2-1.1,1.2-2,2.4-2h3c.9,0,1.6.9,1.5,1.8l-.4,2Z"/>
      <path class="cls-4" d="M22.8,12.2c.6,0,1.1-.5,1.1-1.1s-.5-1.1-1.1-1.1-1.1.5-1.1,1.1.5,1.1,1.1,1.1Z"/>
      <path class="cls-4" d="M23.8,24.7c-.2.4-.6.7-1.1.7s-1.1-.5-1.1-1.1.5-1.1,1.1-1.1.9.3,1.1.7h2.1l1.3-2.6h-10c-.2.4-.6.7-1.1.7s-1.1-.5-1.1-1.1.5-1.1,1.1-1.1.9.3,1.1.7h7.9l-1.9-2.4h-3.8c-.2.4-.6.7-1.1.7s-1.1-.5-1.1-1.1.5-1.1,1.1-1.1.9.3,1.1.7h4.2l2.5,3.2h5.2v.8c-.1,0-3.2,0-3.2,0l-1.7,3.4h-2.5Z"/>
      <path class="cls-4" d="M23.9,30.8c0,.6-.5,1.1-1.1,1.1s-1.1-.5-1.1-1.1.5-1.1,1.1-1.1,1.1.5,1.1,1.1Z"/>
      <path class="cls-4" d="M24.9,15.4c.6,0,1.1-.5,1.1-1.1s-.5-1.1-1.1-1.1-1.1.5-1.1,1.1.5,1.1,1.1,1.1Z"/>
      <path class="cls-4" d="M26.1,27.4c0,.6-.5,1.1-1.1,1.1s-1.1-.5-1.1-1.1.5-1.1,1.1-1.1,1.1.5,1.1,1.1Z"/>
      <path class="cls-4" d="M20.5,15.4c.6,0,1.1-.5,1.1-1.1s-.5-1.1-1.1-1.1-1.1.5-1.1,1.1.5,1.1,1.1,1.1Z"/>
      <path class="cls-4" d="M18.4,25.3c.5,0,.9-.4.9-.9s-.4-.9-.9-.9-.9.4-.9.9.4.9.9.9Z"/>
      <path class="cls-4" d="M21.6,27.4c0,.5-.4.9-.9.9s-.9-.4-.9-.9.4-.9.9-.9.9.4.9.9Z"/>
      <path class="cls-4" d="M18.4,31.7c.5,0,.9-.4.9-.9s-.4-.9-.9-.9-.9.4-.9.9.4.9.9.9Z"/>
      <path class="cls-4" d="M15,24.3c0,.5-.4.9-.9.9s-.9-.4-.9-.9.4-.9.9-.9.9.4.9.9Z"/>
      <path class="cls-4" d="M11.8,21.9c.5,0,.9-.4.9-.9s-.4-.9-.9-.9-.9.4-.9.9.4.9.9.9Z"/>
      <path class="cls-4" d="M15,17.7c0,.5-.4.9-.9.9s-.9-.4-.9-.9.4-.9.9-.9.9.4.9.9Z"/>
      <path class="cls-4" d="M16.2,15.2c.5,0,.9-.4.9-.9s-.4-.9-.9-.9-.9.4-.9.9.4.9.9.9Z"/>
      <path class="cls-4" d="M19.3,11.1c0,.5-.4.9-.9.9s-.9-.4-.9-.9.4-.9.9-.9.9.4.9.9Z"/>
      <path class="cls-4" d="M14.1,11.8c.4,0,.7-.3.7-.7s-.3-.7-.7-.7-.7.3-.7.7.3.7.7.7Z"/>
      <path class="cls-4" d="M12.5,14.4c0,.4-.3.7-.7.7s-.7-.3-.7-.7.3-.7.7-.7.7.3.7.7Z"/>
      <path class="cls-4" d="M9.7,18.4c.4,0,.7-.3.7-.7s-.3-.7-.7-.7-.7.3-.7.7.3.7.7.7Z"/>
      <path class="cls-4" d="M9.3,20.9c0,.4-.3.7-.7.7s-.7-.3-.7-.7.3-.7.7-.7.7.3.7.7Z"/>
      <path class="cls-4" d="M9.7,25c.4,0,.7-.3.7-.7s-.3-.7-.7-.7-.7.3-.7.7.3.7.7.7Z"/>
      <path class="cls-4" d="M16.9,27.4c0,.4-.3.7-.7.7s-.7-.3-.7-.7.3-.7.7-.7.7.3.7.7Z"/>
      <path class="cls-4" d="M14.1,31.3c.4,0,.7-.3.7-.7s-.3-.7-.7-.7-.7.3-.7.7.3.7.7.7Z"/>
      <path class="cls-4" d="M12.5,27.4c0,.3-.3.6-.6.6s-.6-.3-.6-.6.3-.6.6-.6.6.3.6.6Z"/>
      <path class="cls-4" d="M8.6,27.8c.2,0,.4-.2.4-.4s-.2-.4-.4-.4-.4.2-.4.4.2.4.4.4Z"/>
      <path class="cls-4" d="M6.8,24.3c0,.2-.2.4-.4.4s-.4-.2-.4-.4.2-.4.4-.4.4.2.4.4Z"/>
      <path class="cls-4" d="M5.4,21.3c.2,0,.4-.2.4-.4s-.2-.4-.4-.4-.4.2-.4.4.2.4.4.4Z"/>
      <path class="cls-4" d="M6.9,17.7c0,.2-.2.4-.4.4s-.4-.2-.4-.4.2-.4.4-.4.4.2.4.4Z"/>
      <path class="cls-4" d="M8.6,14.7c.2,0,.4-.2.4-.4s-.2-.4-.4-.4-.4.2-.4.4.2.4.4.4Z"/>
    </g>
  </g>
</svg>